<?xml version="1.0" encoding="utf-8" standalone="no"?>
<!DOCTYPE svg PUBLIC "-//W3C//DTD SVG 1.1//EN"
  "http://www.w3.org/Graphics/SVG/1.1/DTD/svg11.dtd">
<svg height="504pt" version="1.1" viewBox="0 0 887.99976 504" width="887.99976pt" xmlns="http://www.w3.org/2000/svg" xmlns:xlink="http://www.w3.org/1999/xlink">
 <metadata>
  <rdf:RDF xmlns:cc="http://creativecommons.org/ns#" xmlns:dc="http://purl.org/dc/elements/1.1/" xmlns:rdf="http://www.w3.org/1999/02/22-rdf-syntax-ns#">
   <cc:Work>
    <dc:type rdf:resource="http://purl.org/dc/dcmitype/StillImage"/>
    <dc:date>2022-01-01T22:21:29.959206</dc:date>
    <dc:format>image/svg+xml</dc:format>
    <dc:creator>
     <cc:Agent>
      <dc:title>Matplotlib v3.4.3, https://matplotlib.org/</dc:title>
     </cc:Agent>
    </dc:creator>
   </cc:Work>
  </rdf:RDF>
 </metadata>
 <defs>
  <style type="text/css">*{stroke-linecap:butt;stroke-linejoin:round;}</style>
 </defs>
 <g id="figure_1">
  <g id="patch_1">
   <path d="M 0 504 
L 887.99976 504 
L 887.99976 0 
L 0 0 
z
" style="fill:#ffffff;"/>
  </g>
  <g id="axes_1">
   <g id="patch_2">
    <path d="M 110.99997 448.56 
L 799.199784 448.56 
L 799.199784 60.48 
L 110.99997 60.48 
z
" style="fill:#ffffff;"/>
   </g>
   <g id="PathCollection_1">
    <path clip-path="url(#p73a95e1cef)" d="M 110.99997 454.683724 
C 112.624001 454.683724 114.181734 454.03849 115.330097 452.890127 
C 116.47846 451.741764 117.123694 450.184031 117.123694 448.56 
C 117.123694 446.935969 116.47846 445.378236 115.330097 444.229873 
C 114.181734 443.08151 112.624001 442.436276 110.99997 442.436276 
C 109.375939 442.436276 107.818206 443.08151 106.669843 444.229873 
C 105.52148 445.378236 104.876246 446.935969 104.876246 448.56 
C 104.876246 450.184031 105.52148 451.741764 106.669843 452.890127 
C 107.818206 454.03849 109.375939 454.683724 110.99997 454.683724 
z
" style="fill:#1f77b4;stroke:#1f77b4;"/>
    <path clip-path="url(#p73a95e1cef)" d="M 187.466616 450.802924 
C 189.090647 450.802924 190.64838 450.15769 191.796743 449.009327 
C 192.945106 447.860964 193.59034 446.303231 193.59034 444.6792 
C 193.59034 443.055169 192.945106 441.497436 191.796743 440.349073 
C 190.64838 439.20071 189.090647 438.555476 187.466616 438.555476 
C 185.842585 438.555476 184.284852 439.20071 183.136489 440.349073 
C 181.988126 441.497436 181.342892 443.055169 181.342892 444.6792 
C 181.342892 446.303231 181.988126 447.860964 183.136489 449.009327 
C 184.284852 450.15769 185.842585 450.802924 187.466616 450.802924 
z
" style="fill:#1f77b4;stroke:#1f77b4;"/>
    <path clip-path="url(#p73a95e1cef)" d="M 263.933262 446.922124 
C 265.557293 446.922124 267.115026 446.27689 268.263389 445.128527 
C 269.411752 443.980164 270.056986 442.422431 270.056986 440.7984 
C 270.056986 439.174369 269.411752 437.616636 268.263389 436.468273 
C 267.115026 435.31991 265.557293 434.674676 263.933262 434.674676 
C 262.309231 434.674676 260.751498 435.31991 259.603135 436.468273 
C 258.454772 437.616636 257.809538 439.174369 257.809538 440.7984 
C 257.809538 442.422431 258.454772 443.980164 259.603135 445.128527 
C 260.751498 446.27689 262.309231 446.922124 263.933262 446.922124 
z
" style="fill:#1f77b4;stroke:#1f77b4;"/>
    <path clip-path="url(#p73a95e1cef)" d="M 340.399908 443.041324 
C 342.023939 443.041324 343.581672 442.39609 344.730035 441.247727 
C 345.878398 440.099364 346.523632 438.541631 346.523632 436.9176 
C 346.523632 435.293569 345.878398 433.735836 344.730035 432.587473 
C 343.581672 431.43911 342.023939 430.793876 340.399908 430.793876 
C 338.775877 430.793876 337.218144 431.43911 336.069781 432.587473 
C 334.921418 433.735836 334.276184 435.293569 334.276184 436.9176 
C 334.276184 438.541631 334.921418 440.099364 336.069781 441.247727 
C 337.218144 442.39609 338.775877 443.041324 340.399908 443.041324 
z
" style="fill:#1f77b4;stroke:#1f77b4;"/>
    <path clip-path="url(#p73a95e1cef)" d="M 416.866554 439.160524 
C 418.490585 439.160524 420.048318 438.51529 421.196681 437.366927 
C 422.345044 436.218564 422.990278 434.660831 422.990278 433.0368 
C 422.990278 431.412769 422.345044 429.855036 421.196681 428.706673 
C 420.048318 427.55831 418.490585 426.913076 416.866554 426.913076 
C 415.242523 426.913076 413.68479 427.55831 412.536427 428.706673 
C 411.388064 429.855036 410.74283 431.412769 410.74283 433.0368 
C 410.74283 434.660831 411.388064 436.218564 412.536427 437.366927 
C 413.68479 438.51529 415.242523 439.160524 416.866554 439.160524 
z
" style="fill:#1f77b4;stroke:#1f77b4;"/>
    <path clip-path="url(#p73a95e1cef)" d="M 493.3332 435.279724 
C 494.957231 435.279724 496.514964 434.63449 497.663327 433.486127 
C 498.81169 432.337764 499.456924 430.780031 499.456924 429.156 
C 499.456924 427.531969 498.81169 425.974236 497.663327 424.825873 
C 496.514964 423.67751 494.957231 423.032276 493.3332 423.032276 
C 491.709169 423.032276 490.151436 423.67751 489.003073 424.825873 
C 487.85471 425.974236 487.209476 427.531969 487.209476 429.156 
C 487.209476 430.780031 487.85471 432.337764 489.003073 433.486127 
C 490.151436 434.63449 491.709169 435.279724 493.3332 435.279724 
z
" style="fill:#1f77b4;stroke:#1f77b4;"/>
    <path clip-path="url(#p73a95e1cef)" d="M 569.799846 431.398924 
C 571.423877 431.398924 572.98161 430.75369 574.129973 429.605327 
C 575.278336 428.456964 575.92357 426.899231 575.92357 425.2752 
C 575.92357 423.651169 575.278336 422.093436 574.129973 420.945073 
C 572.98161 419.79671 571.423877 419.151476 569.799846 419.151476 
C 568.175815 419.151476 566.618082 419.79671 565.469719 420.945073 
C 564.321356 422.093436 563.676122 423.651169 563.676122 425.2752 
C 563.676122 426.899231 564.321356 428.456964 565.469719 429.605327 
C 566.618082 430.75369 568.175815 431.398924 569.799846 431.398924 
z
" style="fill:#1f77b4;stroke:#1f77b4;"/>
    <path clip-path="url(#p73a95e1cef)" d="M 646.266492 427.518124 
C 647.890523 427.518124 649.448256 426.87289 650.596619 425.724527 
C 651.744982 424.576164 652.390216 423.018431 652.390216 421.3944 
C 652.390216 419.770369 651.744982 418.212636 650.596619 417.064273 
C 649.448256 415.91591 647.890523 415.270676 646.266492 415.270676 
C 644.642461 415.270676 643.084728 415.91591 641.936365 417.064273 
C 640.788002 418.212636 640.142768 419.770369 640.142768 421.3944 
C 640.142768 423.018431 640.788002 424.576164 641.936365 425.724527 
C 643.084728 426.87289 644.642461 427.518124 646.266492 427.518124 
z
" style="fill:#1f77b4;stroke:#1f77b4;"/>
    <path clip-path="url(#p73a95e1cef)" d="M 722.733138 423.637324 
C 724.357169 423.637324 725.914902 422.99209 727.063265 421.843727 
C 728.211628 420.695364 728.856862 419.137631 728.856862 417.5136 
C 728.856862 415.889569 728.211628 414.331836 727.063265 413.183473 
C 725.914902 412.03511 724.357169 411.389876 722.733138 411.389876 
C 721.109107 411.389876 719.551374 412.03511 718.403011 413.183473 
C 717.254648 414.331836 716.609414 415.889569 716.609414 417.5136 
C 716.609414 419.137631 717.254648 420.695364 718.403011 421.843727 
C 719.551374 422.99209 721.109107 423.637324 722.733138 423.637324 
z
" style="fill:#1f77b4;stroke:#1f77b4;"/>
   </g>
   <g id="matplotlib.axis_1">
    <g id="xtick_1">
     <g id="line2d_1">
      <defs>
       <path d="M 0 0 
L 0 3.5 
" id="mbac122d724" style="stroke:#000000;stroke-width:0.8;"/>
      </defs>
      <g>
       <use style="stroke:#000000;stroke-width:0.8;" x="110.99997" xlink:href="#mbac122d724" y="448.56"/>
      </g>
     </g>
     <g id="text_1">
      <!-- 1 -->
      <g transform="translate(107.81872 463.158437)scale(0.1 -0.1)">
       <defs>
        <path d="M 794 531 
L 1825 531 
L 1825 4091 
L 703 3866 
L 703 4441 
L 1819 4666 
L 2450 4666 
L 2450 531 
L 3481 531 
L 3481 0 
L 794 0 
L 794 531 
z
" id="DejaVuSans-31" transform="scale(0.015625)"/>
       </defs>
       <use xlink:href="#DejaVuSans-31"/>
      </g>
     </g>
    </g>
    <g id="xtick_2">
     <g id="line2d_2">
      <g>
       <use style="stroke:#000000;stroke-width:0.8;" x="187.466616" xlink:href="#mbac122d724" y="448.56"/>
      </g>
     </g>
     <g id="text_2">
      <!-- 2 -->
      <g transform="translate(184.285366 463.158437)scale(0.1 -0.1)">
       <defs>
        <path d="M 1228 531 
L 3431 531 
L 3431 0 
L 469 0 
L 469 531 
Q 828 903 1448 1529 
Q 2069 2156 2228 2338 
Q 2531 2678 2651 2914 
Q 2772 3150 2772 3378 
Q 2772 3750 2511 3984 
Q 2250 4219 1831 4219 
Q 1534 4219 1204 4116 
Q 875 4013 500 3803 
L 500 4441 
Q 881 4594 1212 4672 
Q 1544 4750 1819 4750 
Q 2544 4750 2975 4387 
Q 3406 4025 3406 3419 
Q 3406 3131 3298 2873 
Q 3191 2616 2906 2266 
Q 2828 2175 2409 1742 
Q 1991 1309 1228 531 
z
" id="DejaVuSans-32" transform="scale(0.015625)"/>
       </defs>
       <use xlink:href="#DejaVuSans-32"/>
      </g>
     </g>
    </g>
    <g id="xtick_3">
     <g id="line2d_3">
      <g>
       <use style="stroke:#000000;stroke-width:0.8;" x="263.933262" xlink:href="#mbac122d724" y="448.56"/>
      </g>
     </g>
     <g id="text_3">
      <!-- 3 -->
      <g transform="translate(260.752012 463.158437)scale(0.1 -0.1)">
       <defs>
        <path d="M 2597 2516 
Q 3050 2419 3304 2112 
Q 3559 1806 3559 1356 
Q 3559 666 3084 287 
Q 2609 -91 1734 -91 
Q 1441 -91 1130 -33 
Q 819 25 488 141 
L 488 750 
Q 750 597 1062 519 
Q 1375 441 1716 441 
Q 2309 441 2620 675 
Q 2931 909 2931 1356 
Q 2931 1769 2642 2001 
Q 2353 2234 1838 2234 
L 1294 2234 
L 1294 2753 
L 1863 2753 
Q 2328 2753 2575 2939 
Q 2822 3125 2822 3475 
Q 2822 3834 2567 4026 
Q 2313 4219 1838 4219 
Q 1578 4219 1281 4162 
Q 984 4106 628 3988 
L 628 4550 
Q 988 4650 1302 4700 
Q 1616 4750 1894 4750 
Q 2613 4750 3031 4423 
Q 3450 4097 3450 3541 
Q 3450 3153 3228 2886 
Q 3006 2619 2597 2516 
z
" id="DejaVuSans-33" transform="scale(0.015625)"/>
       </defs>
       <use xlink:href="#DejaVuSans-33"/>
      </g>
     </g>
    </g>
    <g id="xtick_4">
     <g id="line2d_4">
      <g>
       <use style="stroke:#000000;stroke-width:0.8;" x="340.399908" xlink:href="#mbac122d724" y="448.56"/>
      </g>
     </g>
     <g id="text_4">
      <!-- 4 -->
      <g transform="translate(337.218658 463.158437)scale(0.1 -0.1)">
       <defs>
        <path d="M 2419 4116 
L 825 1625 
L 2419 1625 
L 2419 4116 
z
M 2253 4666 
L 3047 4666 
L 3047 1625 
L 3713 1625 
L 3713 1100 
L 3047 1100 
L 3047 0 
L 2419 0 
L 2419 1100 
L 313 1100 
L 313 1709 
L 2253 4666 
z
" id="DejaVuSans-34" transform="scale(0.015625)"/>
       </defs>
       <use xlink:href="#DejaVuSans-34"/>
      </g>
     </g>
    </g>
    <g id="xtick_5">
     <g id="line2d_5">
      <g>
       <use style="stroke:#000000;stroke-width:0.8;" x="416.866554" xlink:href="#mbac122d724" y="448.56"/>
      </g>
     </g>
     <g id="text_5">
      <!-- 5 -->
      <g transform="translate(413.685304 463.158437)scale(0.1 -0.1)">
       <defs>
        <path d="M 691 4666 
L 3169 4666 
L 3169 4134 
L 1269 4134 
L 1269 2991 
Q 1406 3038 1543 3061 
Q 1681 3084 1819 3084 
Q 2600 3084 3056 2656 
Q 3513 2228 3513 1497 
Q 3513 744 3044 326 
Q 2575 -91 1722 -91 
Q 1428 -91 1123 -41 
Q 819 9 494 109 
L 494 744 
Q 775 591 1075 516 
Q 1375 441 1709 441 
Q 2250 441 2565 725 
Q 2881 1009 2881 1497 
Q 2881 1984 2565 2268 
Q 2250 2553 1709 2553 
Q 1456 2553 1204 2497 
Q 953 2441 691 2322 
L 691 4666 
z
" id="DejaVuSans-35" transform="scale(0.015625)"/>
       </defs>
       <use xlink:href="#DejaVuSans-35"/>
      </g>
     </g>
    </g>
    <g id="xtick_6">
     <g id="line2d_6">
      <g>
       <use style="stroke:#000000;stroke-width:0.8;" x="493.3332" xlink:href="#mbac122d724" y="448.56"/>
      </g>
     </g>
     <g id="text_6">
      <!-- 6 -->
      <g transform="translate(490.15195 463.158437)scale(0.1 -0.1)">
       <defs>
        <path d="M 2113 2584 
Q 1688 2584 1439 2293 
Q 1191 2003 1191 1497 
Q 1191 994 1439 701 
Q 1688 409 2113 409 
Q 2538 409 2786 701 
Q 3034 994 3034 1497 
Q 3034 2003 2786 2293 
Q 2538 2584 2113 2584 
z
M 3366 4563 
L 3366 3988 
Q 3128 4100 2886 4159 
Q 2644 4219 2406 4219 
Q 1781 4219 1451 3797 
Q 1122 3375 1075 2522 
Q 1259 2794 1537 2939 
Q 1816 3084 2150 3084 
Q 2853 3084 3261 2657 
Q 3669 2231 3669 1497 
Q 3669 778 3244 343 
Q 2819 -91 2113 -91 
Q 1303 -91 875 529 
Q 447 1150 447 2328 
Q 447 3434 972 4092 
Q 1497 4750 2381 4750 
Q 2619 4750 2861 4703 
Q 3103 4656 3366 4563 
z
" id="DejaVuSans-36" transform="scale(0.015625)"/>
       </defs>
       <use xlink:href="#DejaVuSans-36"/>
      </g>
     </g>
    </g>
    <g id="xtick_7">
     <g id="line2d_7">
      <g>
       <use style="stroke:#000000;stroke-width:0.8;" x="569.799846" xlink:href="#mbac122d724" y="448.56"/>
      </g>
     </g>
     <g id="text_7">
      <!-- 7 -->
      <g transform="translate(566.618596 463.158437)scale(0.1 -0.1)">
       <defs>
        <path d="M 525 4666 
L 3525 4666 
L 3525 4397 
L 1831 0 
L 1172 0 
L 2766 4134 
L 525 4134 
L 525 4666 
z
" id="DejaVuSans-37" transform="scale(0.015625)"/>
       </defs>
       <use xlink:href="#DejaVuSans-37"/>
      </g>
     </g>
    </g>
    <g id="xtick_8">
     <g id="line2d_8">
      <g>
       <use style="stroke:#000000;stroke-width:0.8;" x="646.266492" xlink:href="#mbac122d724" y="448.56"/>
      </g>
     </g>
     <g id="text_8">
      <!-- 8 -->
      <g transform="translate(643.085242 463.158437)scale(0.1 -0.1)">
       <defs>
        <path d="M 2034 2216 
Q 1584 2216 1326 1975 
Q 1069 1734 1069 1313 
Q 1069 891 1326 650 
Q 1584 409 2034 409 
Q 2484 409 2743 651 
Q 3003 894 3003 1313 
Q 3003 1734 2745 1975 
Q 2488 2216 2034 2216 
z
M 1403 2484 
Q 997 2584 770 2862 
Q 544 3141 544 3541 
Q 544 4100 942 4425 
Q 1341 4750 2034 4750 
Q 2731 4750 3128 4425 
Q 3525 4100 3525 3541 
Q 3525 3141 3298 2862 
Q 3072 2584 2669 2484 
Q 3125 2378 3379 2068 
Q 3634 1759 3634 1313 
Q 3634 634 3220 271 
Q 2806 -91 2034 -91 
Q 1263 -91 848 271 
Q 434 634 434 1313 
Q 434 1759 690 2068 
Q 947 2378 1403 2484 
z
M 1172 3481 
Q 1172 3119 1398 2916 
Q 1625 2713 2034 2713 
Q 2441 2713 2670 2916 
Q 2900 3119 2900 3481 
Q 2900 3844 2670 4047 
Q 2441 4250 2034 4250 
Q 1625 4250 1398 4047 
Q 1172 3844 1172 3481 
z
" id="DejaVuSans-38" transform="scale(0.015625)"/>
       </defs>
       <use xlink:href="#DejaVuSans-38"/>
      </g>
     </g>
    </g>
    <g id="xtick_9">
     <g id="line2d_9">
      <g>
       <use style="stroke:#000000;stroke-width:0.8;" x="722.733138" xlink:href="#mbac122d724" y="448.56"/>
      </g>
     </g>
     <g id="text_9">
      <!-- 9 -->
      <g transform="translate(719.551888 463.158437)scale(0.1 -0.1)">
       <defs>
        <path d="M 703 97 
L 703 672 
Q 941 559 1184 500 
Q 1428 441 1663 441 
Q 2288 441 2617 861 
Q 2947 1281 2994 2138 
Q 2813 1869 2534 1725 
Q 2256 1581 1919 1581 
Q 1219 1581 811 2004 
Q 403 2428 403 3163 
Q 403 3881 828 4315 
Q 1253 4750 1959 4750 
Q 2769 4750 3195 4129 
Q 3622 3509 3622 2328 
Q 3622 1225 3098 567 
Q 2575 -91 1691 -91 
Q 1453 -91 1209 -44 
Q 966 3 703 97 
z
M 1959 2075 
Q 2384 2075 2632 2365 
Q 2881 2656 2881 3163 
Q 2881 3666 2632 3958 
Q 2384 4250 1959 4250 
Q 1534 4250 1286 3958 
Q 1038 3666 1038 3163 
Q 1038 2656 1286 2365 
Q 1534 2075 1959 2075 
z
" id="DejaVuSans-39" transform="scale(0.015625)"/>
       </defs>
       <use xlink:href="#DejaVuSans-39"/>
      </g>
     </g>
    </g>
    <g id="xtick_10">
     <g id="line2d_10">
      <g>
       <use style="stroke:#000000;stroke-width:0.8;" x="799.199784" xlink:href="#mbac122d724" y="448.56"/>
      </g>
     </g>
     <g id="text_10">
      <!-- 10 -->
      <g transform="translate(792.837284 463.158437)scale(0.1 -0.1)">
       <defs>
        <path d="M 2034 4250 
Q 1547 4250 1301 3770 
Q 1056 3291 1056 2328 
Q 1056 1369 1301 889 
Q 1547 409 2034 409 
Q 2525 409 2770 889 
Q 3016 1369 3016 2328 
Q 3016 3291 2770 3770 
Q 2525 4250 2034 4250 
z
M 2034 4750 
Q 2819 4750 3233 4129 
Q 3647 3509 3647 2328 
Q 3647 1150 3233 529 
Q 2819 -91 2034 -91 
Q 1250 -91 836 529 
Q 422 1150 422 2328 
Q 422 3509 836 4129 
Q 1250 4750 2034 4750 
z
" id="DejaVuSans-30" transform="scale(0.015625)"/>
       </defs>
       <use xlink:href="#DejaVuSans-31"/>
       <use x="63.623047" xlink:href="#DejaVuSans-30"/>
      </g>
     </g>
    </g>
    <g id="text_11">
     <!-- Sequence Number -->
     <g transform="translate(408.760033 476.836563)scale(0.1 -0.1)">
      <defs>
       <path d="M 3425 4513 
L 3425 3897 
Q 3066 4069 2747 4153 
Q 2428 4238 2131 4238 
Q 1616 4238 1336 4038 
Q 1056 3838 1056 3469 
Q 1056 3159 1242 3001 
Q 1428 2844 1947 2747 
L 2328 2669 
Q 3034 2534 3370 2195 
Q 3706 1856 3706 1288 
Q 3706 609 3251 259 
Q 2797 -91 1919 -91 
Q 1588 -91 1214 -16 
Q 841 59 441 206 
L 441 856 
Q 825 641 1194 531 
Q 1563 422 1919 422 
Q 2459 422 2753 634 
Q 3047 847 3047 1241 
Q 3047 1584 2836 1778 
Q 2625 1972 2144 2069 
L 1759 2144 
Q 1053 2284 737 2584 
Q 422 2884 422 3419 
Q 422 4038 858 4394 
Q 1294 4750 2059 4750 
Q 2388 4750 2728 4690 
Q 3069 4631 3425 4513 
z
" id="DejaVuSans-53" transform="scale(0.015625)"/>
       <path d="M 3597 1894 
L 3597 1613 
L 953 1613 
Q 991 1019 1311 708 
Q 1631 397 2203 397 
Q 2534 397 2845 478 
Q 3156 559 3463 722 
L 3463 178 
Q 3153 47 2828 -22 
Q 2503 -91 2169 -91 
Q 1331 -91 842 396 
Q 353 884 353 1716 
Q 353 2575 817 3079 
Q 1281 3584 2069 3584 
Q 2775 3584 3186 3129 
Q 3597 2675 3597 1894 
z
M 3022 2063 
Q 3016 2534 2758 2815 
Q 2500 3097 2075 3097 
Q 1594 3097 1305 2825 
Q 1016 2553 972 2059 
L 3022 2063 
z
" id="DejaVuSans-65" transform="scale(0.015625)"/>
       <path d="M 947 1747 
Q 947 1113 1208 752 
Q 1469 391 1925 391 
Q 2381 391 2643 752 
Q 2906 1113 2906 1747 
Q 2906 2381 2643 2742 
Q 2381 3103 1925 3103 
Q 1469 3103 1208 2742 
Q 947 2381 947 1747 
z
M 2906 525 
Q 2725 213 2448 61 
Q 2172 -91 1784 -91 
Q 1150 -91 751 415 
Q 353 922 353 1747 
Q 353 2572 751 3078 
Q 1150 3584 1784 3584 
Q 2172 3584 2448 3432 
Q 2725 3281 2906 2969 
L 2906 3500 
L 3481 3500 
L 3481 -1331 
L 2906 -1331 
L 2906 525 
z
" id="DejaVuSans-71" transform="scale(0.015625)"/>
       <path d="M 544 1381 
L 544 3500 
L 1119 3500 
L 1119 1403 
Q 1119 906 1312 657 
Q 1506 409 1894 409 
Q 2359 409 2629 706 
Q 2900 1003 2900 1516 
L 2900 3500 
L 3475 3500 
L 3475 0 
L 2900 0 
L 2900 538 
Q 2691 219 2414 64 
Q 2138 -91 1772 -91 
Q 1169 -91 856 284 
Q 544 659 544 1381 
z
M 1991 3584 
L 1991 3584 
z
" id="DejaVuSans-75" transform="scale(0.015625)"/>
       <path d="M 3513 2113 
L 3513 0 
L 2938 0 
L 2938 2094 
Q 2938 2591 2744 2837 
Q 2550 3084 2163 3084 
Q 1697 3084 1428 2787 
Q 1159 2491 1159 1978 
L 1159 0 
L 581 0 
L 581 3500 
L 1159 3500 
L 1159 2956 
Q 1366 3272 1645 3428 
Q 1925 3584 2291 3584 
Q 2894 3584 3203 3211 
Q 3513 2838 3513 2113 
z
" id="DejaVuSans-6e" transform="scale(0.015625)"/>
       <path d="M 3122 3366 
L 3122 2828 
Q 2878 2963 2633 3030 
Q 2388 3097 2138 3097 
Q 1578 3097 1268 2742 
Q 959 2388 959 1747 
Q 959 1106 1268 751 
Q 1578 397 2138 397 
Q 2388 397 2633 464 
Q 2878 531 3122 666 
L 3122 134 
Q 2881 22 2623 -34 
Q 2366 -91 2075 -91 
Q 1284 -91 818 406 
Q 353 903 353 1747 
Q 353 2603 823 3093 
Q 1294 3584 2113 3584 
Q 2378 3584 2631 3529 
Q 2884 3475 3122 3366 
z
" id="DejaVuSans-63" transform="scale(0.015625)"/>
       <path id="DejaVuSans-20" transform="scale(0.015625)"/>
       <path d="M 628 4666 
L 1478 4666 
L 3547 763 
L 3547 4666 
L 4159 4666 
L 4159 0 
L 3309 0 
L 1241 3903 
L 1241 0 
L 628 0 
L 628 4666 
z
" id="DejaVuSans-4e" transform="scale(0.015625)"/>
       <path d="M 3328 2828 
Q 3544 3216 3844 3400 
Q 4144 3584 4550 3584 
Q 5097 3584 5394 3201 
Q 5691 2819 5691 2113 
L 5691 0 
L 5113 0 
L 5113 2094 
Q 5113 2597 4934 2840 
Q 4756 3084 4391 3084 
Q 3944 3084 3684 2787 
Q 3425 2491 3425 1978 
L 3425 0 
L 2847 0 
L 2847 2094 
Q 2847 2600 2669 2842 
Q 2491 3084 2119 3084 
Q 1678 3084 1418 2786 
Q 1159 2488 1159 1978 
L 1159 0 
L 581 0 
L 581 3500 
L 1159 3500 
L 1159 2956 
Q 1356 3278 1631 3431 
Q 1906 3584 2284 3584 
Q 2666 3584 2933 3390 
Q 3200 3197 3328 2828 
z
" id="DejaVuSans-6d" transform="scale(0.015625)"/>
       <path d="M 3116 1747 
Q 3116 2381 2855 2742 
Q 2594 3103 2138 3103 
Q 1681 3103 1420 2742 
Q 1159 2381 1159 1747 
Q 1159 1113 1420 752 
Q 1681 391 2138 391 
Q 2594 391 2855 752 
Q 3116 1113 3116 1747 
z
M 1159 2969 
Q 1341 3281 1617 3432 
Q 1894 3584 2278 3584 
Q 2916 3584 3314 3078 
Q 3713 2572 3713 1747 
Q 3713 922 3314 415 
Q 2916 -91 2278 -91 
Q 1894 -91 1617 61 
Q 1341 213 1159 525 
L 1159 0 
L 581 0 
L 581 4863 
L 1159 4863 
L 1159 2969 
z
" id="DejaVuSans-62" transform="scale(0.015625)"/>
       <path d="M 2631 2963 
Q 2534 3019 2420 3045 
Q 2306 3072 2169 3072 
Q 1681 3072 1420 2755 
Q 1159 2438 1159 1844 
L 1159 0 
L 581 0 
L 581 3500 
L 1159 3500 
L 1159 2956 
Q 1341 3275 1631 3429 
Q 1922 3584 2338 3584 
Q 2397 3584 2469 3576 
Q 2541 3569 2628 3553 
L 2631 2963 
z
" id="DejaVuSans-72" transform="scale(0.015625)"/>
      </defs>
      <use xlink:href="#DejaVuSans-53"/>
      <use x="63.476562" xlink:href="#DejaVuSans-65"/>
      <use x="125" xlink:href="#DejaVuSans-71"/>
      <use x="188.476562" xlink:href="#DejaVuSans-75"/>
      <use x="251.855469" xlink:href="#DejaVuSans-65"/>
      <use x="313.378906" xlink:href="#DejaVuSans-6e"/>
      <use x="376.757812" xlink:href="#DejaVuSans-63"/>
      <use x="431.738281" xlink:href="#DejaVuSans-65"/>
      <use x="493.261719" xlink:href="#DejaVuSans-20"/>
      <use x="525.048828" xlink:href="#DejaVuSans-4e"/>
      <use x="599.853516" xlink:href="#DejaVuSans-75"/>
      <use x="663.232422" xlink:href="#DejaVuSans-6d"/>
      <use x="760.644531" xlink:href="#DejaVuSans-62"/>
      <use x="824.121094" xlink:href="#DejaVuSans-65"/>
      <use x="885.644531" xlink:href="#DejaVuSans-72"/>
     </g>
    </g>
   </g>
   <g id="matplotlib.axis_2">
    <g id="ytick_1">
     <g id="line2d_11">
      <defs>
       <path d="M 0 0 
L -3.5 0 
" id="m3ca767cc21" style="stroke:#000000;stroke-width:0.8;"/>
      </defs>
      <g>
       <use style="stroke:#000000;stroke-width:0.8;" x="110.99997" xlink:href="#m3ca767cc21" y="448.56"/>
      </g>
     </g>
     <g id="text_12">
      <!-- 11.48 -->
      <g transform="translate(75.371845 452.359219)scale(0.1 -0.1)">
       <defs>
        <path d="M 684 794 
L 1344 794 
L 1344 0 
L 684 0 
L 684 794 
z
" id="DejaVuSans-2e" transform="scale(0.015625)"/>
       </defs>
       <use xlink:href="#DejaVuSans-31"/>
       <use x="63.623047" xlink:href="#DejaVuSans-31"/>
       <use x="127.246094" xlink:href="#DejaVuSans-2e"/>
       <use x="159.033203" xlink:href="#DejaVuSans-34"/>
       <use x="222.65625" xlink:href="#DejaVuSans-38"/>
      </g>
     </g>
    </g>
    <g id="ytick_2">
     <g id="line2d_12">
      <g>
       <use style="stroke:#000000;stroke-width:0.8;" x="110.99997" xlink:href="#m3ca767cc21" y="444.6792"/>
      </g>
     </g>
     <g id="text_13">
      <!-- 0.12 -->
      <g transform="translate(81.734345 448.478419)scale(0.1 -0.1)">
       <use xlink:href="#DejaVuSans-30"/>
       <use x="63.623047" xlink:href="#DejaVuSans-2e"/>
       <use x="95.410156" xlink:href="#DejaVuSans-31"/>
       <use x="159.033203" xlink:href="#DejaVuSans-32"/>
      </g>
     </g>
    </g>
    <g id="ytick_3">
     <g id="line2d_13">
      <g>
       <use style="stroke:#000000;stroke-width:0.8;" x="110.99997" xlink:href="#m3ca767cc21" y="440.7984"/>
      </g>
     </g>
     <g id="text_14">
      <!-- 14.77 -->
      <g transform="translate(75.371845 444.597619)scale(0.1 -0.1)">
       <use xlink:href="#DejaVuSans-31"/>
       <use x="63.623047" xlink:href="#DejaVuSans-34"/>
       <use x="127.246094" xlink:href="#DejaVuSans-2e"/>
       <use x="159.033203" xlink:href="#DejaVuSans-37"/>
       <use x="222.65625" xlink:href="#DejaVuSans-37"/>
      </g>
     </g>
    </g>
    <g id="ytick_4">
     <g id="line2d_14">
      <g>
       <use style="stroke:#000000;stroke-width:0.8;" x="110.99997" xlink:href="#m3ca767cc21" y="436.9176"/>
      </g>
     </g>
     <g id="text_15">
      <!-- 10.7 -->
      <g transform="translate(81.734345 440.716819)scale(0.1 -0.1)">
       <use xlink:href="#DejaVuSans-31"/>
       <use x="63.623047" xlink:href="#DejaVuSans-30"/>
       <use x="127.246094" xlink:href="#DejaVuSans-2e"/>
       <use x="159.033203" xlink:href="#DejaVuSans-37"/>
      </g>
     </g>
    </g>
    <g id="ytick_5">
     <g id="line2d_15">
      <g>
       <use style="stroke:#000000;stroke-width:0.8;" x="110.99997" xlink:href="#m3ca767cc21" y="433.0368"/>
      </g>
     </g>
     <g id="text_16">
      <!-- 0.11 -->
      <g transform="translate(81.734345 436.836019)scale(0.1 -0.1)">
       <use xlink:href="#DejaVuSans-30"/>
       <use x="63.623047" xlink:href="#DejaVuSans-2e"/>
       <use x="95.410156" xlink:href="#DejaVuSans-31"/>
       <use x="159.033203" xlink:href="#DejaVuSans-31"/>
      </g>
     </g>
    </g>
    <g id="ytick_6">
     <g id="line2d_16">
      <g>
       <use style="stroke:#000000;stroke-width:0.8;" x="110.99997" xlink:href="#m3ca767cc21" y="429.156"/>
      </g>
     </g>
     <g id="text_17">
      <!-- 99.71 -->
      <g transform="translate(75.371845 432.955219)scale(0.1 -0.1)">
       <use xlink:href="#DejaVuSans-39"/>
       <use x="63.623047" xlink:href="#DejaVuSans-39"/>
       <use x="127.246094" xlink:href="#DejaVuSans-2e"/>
       <use x="159.033203" xlink:href="#DejaVuSans-37"/>
       <use x="222.65625" xlink:href="#DejaVuSans-31"/>
      </g>
     </g>
    </g>
    <g id="ytick_7">
     <g id="line2d_17">
      <g>
       <use style="stroke:#000000;stroke-width:0.8;" x="110.99997" xlink:href="#m3ca767cc21" y="425.2752"/>
      </g>
     </g>
     <g id="text_18">
      <!-- 4.6 -->
      <g transform="translate(88.096845 429.074419)scale(0.1 -0.1)">
       <use xlink:href="#DejaVuSans-34"/>
       <use x="63.623047" xlink:href="#DejaVuSans-2e"/>
       <use x="95.410156" xlink:href="#DejaVuSans-36"/>
      </g>
     </g>
    </g>
    <g id="ytick_8">
     <g id="line2d_18">
      <g>
       <use style="stroke:#000000;stroke-width:0.8;" x="110.99997" xlink:href="#m3ca767cc21" y="421.3944"/>
      </g>
     </g>
     <g id="text_19">
      <!-- 99.59 -->
      <g transform="translate(75.371845 425.193619)scale(0.1 -0.1)">
       <use xlink:href="#DejaVuSans-39"/>
       <use x="63.623047" xlink:href="#DejaVuSans-39"/>
       <use x="127.246094" xlink:href="#DejaVuSans-2e"/>
       <use x="159.033203" xlink:href="#DejaVuSans-35"/>
       <use x="222.65625" xlink:href="#DejaVuSans-39"/>
      </g>
     </g>
    </g>
    <g id="ytick_9">
     <g id="line2d_19">
      <g>
       <use style="stroke:#000000;stroke-width:0.8;" x="110.99997" xlink:href="#m3ca767cc21" y="417.5136"/>
      </g>
     </g>
     <g id="text_20">
      <!-- 8.43 -->
      <g transform="translate(81.734345 421.312819)scale(0.1 -0.1)">
       <use xlink:href="#DejaVuSans-38"/>
       <use x="63.623047" xlink:href="#DejaVuSans-2e"/>
       <use x="95.410156" xlink:href="#DejaVuSans-34"/>
       <use x="159.033203" xlink:href="#DejaVuSans-33"/>
      </g>
     </g>
    </g>
    <g id="text_21">
     <!-- Probability of Indicating Cognitive Impairment -->
     <g transform="translate(69.292158 369.521563)rotate(-90)scale(0.1 -0.1)">
      <defs>
       <path d="M 1259 4147 
L 1259 2394 
L 2053 2394 
Q 2494 2394 2734 2622 
Q 2975 2850 2975 3272 
Q 2975 3691 2734 3919 
Q 2494 4147 2053 4147 
L 1259 4147 
z
M 628 4666 
L 2053 4666 
Q 2838 4666 3239 4311 
Q 3641 3956 3641 3272 
Q 3641 2581 3239 2228 
Q 2838 1875 2053 1875 
L 1259 1875 
L 1259 0 
L 628 0 
L 628 4666 
z
" id="DejaVuSans-50" transform="scale(0.015625)"/>
       <path d="M 1959 3097 
Q 1497 3097 1228 2736 
Q 959 2375 959 1747 
Q 959 1119 1226 758 
Q 1494 397 1959 397 
Q 2419 397 2687 759 
Q 2956 1122 2956 1747 
Q 2956 2369 2687 2733 
Q 2419 3097 1959 3097 
z
M 1959 3584 
Q 2709 3584 3137 3096 
Q 3566 2609 3566 1747 
Q 3566 888 3137 398 
Q 2709 -91 1959 -91 
Q 1206 -91 779 398 
Q 353 888 353 1747 
Q 353 2609 779 3096 
Q 1206 3584 1959 3584 
z
" id="DejaVuSans-6f" transform="scale(0.015625)"/>
       <path d="M 2194 1759 
Q 1497 1759 1228 1600 
Q 959 1441 959 1056 
Q 959 750 1161 570 
Q 1363 391 1709 391 
Q 2188 391 2477 730 
Q 2766 1069 2766 1631 
L 2766 1759 
L 2194 1759 
z
M 3341 1997 
L 3341 0 
L 2766 0 
L 2766 531 
Q 2569 213 2275 61 
Q 1981 -91 1556 -91 
Q 1019 -91 701 211 
Q 384 513 384 1019 
Q 384 1609 779 1909 
Q 1175 2209 1959 2209 
L 2766 2209 
L 2766 2266 
Q 2766 2663 2505 2880 
Q 2244 3097 1772 3097 
Q 1472 3097 1187 3025 
Q 903 2953 641 2809 
L 641 3341 
Q 956 3463 1253 3523 
Q 1550 3584 1831 3584 
Q 2591 3584 2966 3190 
Q 3341 2797 3341 1997 
z
" id="DejaVuSans-61" transform="scale(0.015625)"/>
       <path d="M 603 3500 
L 1178 3500 
L 1178 0 
L 603 0 
L 603 3500 
z
M 603 4863 
L 1178 4863 
L 1178 4134 
L 603 4134 
L 603 4863 
z
" id="DejaVuSans-69" transform="scale(0.015625)"/>
       <path d="M 603 4863 
L 1178 4863 
L 1178 0 
L 603 0 
L 603 4863 
z
" id="DejaVuSans-6c" transform="scale(0.015625)"/>
       <path d="M 1172 4494 
L 1172 3500 
L 2356 3500 
L 2356 3053 
L 1172 3053 
L 1172 1153 
Q 1172 725 1289 603 
Q 1406 481 1766 481 
L 2356 481 
L 2356 0 
L 1766 0 
Q 1100 0 847 248 
Q 594 497 594 1153 
L 594 3053 
L 172 3053 
L 172 3500 
L 594 3500 
L 594 4494 
L 1172 4494 
z
" id="DejaVuSans-74" transform="scale(0.015625)"/>
       <path d="M 2059 -325 
Q 1816 -950 1584 -1140 
Q 1353 -1331 966 -1331 
L 506 -1331 
L 506 -850 
L 844 -850 
Q 1081 -850 1212 -737 
Q 1344 -625 1503 -206 
L 1606 56 
L 191 3500 
L 800 3500 
L 1894 763 
L 2988 3500 
L 3597 3500 
L 2059 -325 
z
" id="DejaVuSans-79" transform="scale(0.015625)"/>
       <path d="M 2375 4863 
L 2375 4384 
L 1825 4384 
Q 1516 4384 1395 4259 
Q 1275 4134 1275 3809 
L 1275 3500 
L 2222 3500 
L 2222 3053 
L 1275 3053 
L 1275 0 
L 697 0 
L 697 3053 
L 147 3053 
L 147 3500 
L 697 3500 
L 697 3744 
Q 697 4328 969 4595 
Q 1241 4863 1831 4863 
L 2375 4863 
z
" id="DejaVuSans-66" transform="scale(0.015625)"/>
       <path d="M 628 4666 
L 1259 4666 
L 1259 0 
L 628 0 
L 628 4666 
z
" id="DejaVuSans-49" transform="scale(0.015625)"/>
       <path d="M 2906 2969 
L 2906 4863 
L 3481 4863 
L 3481 0 
L 2906 0 
L 2906 525 
Q 2725 213 2448 61 
Q 2172 -91 1784 -91 
Q 1150 -91 751 415 
Q 353 922 353 1747 
Q 353 2572 751 3078 
Q 1150 3584 1784 3584 
Q 2172 3584 2448 3432 
Q 2725 3281 2906 2969 
z
M 947 1747 
Q 947 1113 1208 752 
Q 1469 391 1925 391 
Q 2381 391 2643 752 
Q 2906 1113 2906 1747 
Q 2906 2381 2643 2742 
Q 2381 3103 1925 3103 
Q 1469 3103 1208 2742 
Q 947 2381 947 1747 
z
" id="DejaVuSans-64" transform="scale(0.015625)"/>
       <path d="M 2906 1791 
Q 2906 2416 2648 2759 
Q 2391 3103 1925 3103 
Q 1463 3103 1205 2759 
Q 947 2416 947 1791 
Q 947 1169 1205 825 
Q 1463 481 1925 481 
Q 2391 481 2648 825 
Q 2906 1169 2906 1791 
z
M 3481 434 
Q 3481 -459 3084 -895 
Q 2688 -1331 1869 -1331 
Q 1566 -1331 1297 -1286 
Q 1028 -1241 775 -1147 
L 775 -588 
Q 1028 -725 1275 -790 
Q 1522 -856 1778 -856 
Q 2344 -856 2625 -561 
Q 2906 -266 2906 331 
L 2906 616 
Q 2728 306 2450 153 
Q 2172 0 1784 0 
Q 1141 0 747 490 
Q 353 981 353 1791 
Q 353 2603 747 3093 
Q 1141 3584 1784 3584 
Q 2172 3584 2450 3431 
Q 2728 3278 2906 2969 
L 2906 3500 
L 3481 3500 
L 3481 434 
z
" id="DejaVuSans-67" transform="scale(0.015625)"/>
       <path d="M 4122 4306 
L 4122 3641 
Q 3803 3938 3442 4084 
Q 3081 4231 2675 4231 
Q 1875 4231 1450 3742 
Q 1025 3253 1025 2328 
Q 1025 1406 1450 917 
Q 1875 428 2675 428 
Q 3081 428 3442 575 
Q 3803 722 4122 1019 
L 4122 359 
Q 3791 134 3420 21 
Q 3050 -91 2638 -91 
Q 1578 -91 968 557 
Q 359 1206 359 2328 
Q 359 3453 968 4101 
Q 1578 4750 2638 4750 
Q 3056 4750 3426 4639 
Q 3797 4528 4122 4306 
z
" id="DejaVuSans-43" transform="scale(0.015625)"/>
       <path d="M 191 3500 
L 800 3500 
L 1894 563 
L 2988 3500 
L 3597 3500 
L 2284 0 
L 1503 0 
L 191 3500 
z
" id="DejaVuSans-76" transform="scale(0.015625)"/>
       <path d="M 1159 525 
L 1159 -1331 
L 581 -1331 
L 581 3500 
L 1159 3500 
L 1159 2969 
Q 1341 3281 1617 3432 
Q 1894 3584 2278 3584 
Q 2916 3584 3314 3078 
Q 3713 2572 3713 1747 
Q 3713 922 3314 415 
Q 2916 -91 2278 -91 
Q 1894 -91 1617 61 
Q 1341 213 1159 525 
z
M 3116 1747 
Q 3116 2381 2855 2742 
Q 2594 3103 2138 3103 
Q 1681 3103 1420 2742 
Q 1159 2381 1159 1747 
Q 1159 1113 1420 752 
Q 1681 391 2138 391 
Q 2594 391 2855 752 
Q 3116 1113 3116 1747 
z
" id="DejaVuSans-70" transform="scale(0.015625)"/>
      </defs>
      <use xlink:href="#DejaVuSans-50"/>
      <use x="58.552734" xlink:href="#DejaVuSans-72"/>
      <use x="97.416016" xlink:href="#DejaVuSans-6f"/>
      <use x="158.597656" xlink:href="#DejaVuSans-62"/>
      <use x="222.074219" xlink:href="#DejaVuSans-61"/>
      <use x="283.353516" xlink:href="#DejaVuSans-62"/>
      <use x="346.830078" xlink:href="#DejaVuSans-69"/>
      <use x="374.613281" xlink:href="#DejaVuSans-6c"/>
      <use x="402.396484" xlink:href="#DejaVuSans-69"/>
      <use x="430.179688" xlink:href="#DejaVuSans-74"/>
      <use x="469.388672" xlink:href="#DejaVuSans-79"/>
      <use x="528.568359" xlink:href="#DejaVuSans-20"/>
      <use x="560.355469" xlink:href="#DejaVuSans-6f"/>
      <use x="621.537109" xlink:href="#DejaVuSans-66"/>
      <use x="656.742188" xlink:href="#DejaVuSans-20"/>
      <use x="688.529297" xlink:href="#DejaVuSans-49"/>
      <use x="718.021484" xlink:href="#DejaVuSans-6e"/>
      <use x="781.400391" xlink:href="#DejaVuSans-64"/>
      <use x="844.876953" xlink:href="#DejaVuSans-69"/>
      <use x="872.660156" xlink:href="#DejaVuSans-63"/>
      <use x="927.640625" xlink:href="#DejaVuSans-61"/>
      <use x="988.919922" xlink:href="#DejaVuSans-74"/>
      <use x="1028.128906" xlink:href="#DejaVuSans-69"/>
      <use x="1055.912109" xlink:href="#DejaVuSans-6e"/>
      <use x="1119.291016" xlink:href="#DejaVuSans-67"/>
      <use x="1182.767578" xlink:href="#DejaVuSans-20"/>
      <use x="1214.554688" xlink:href="#DejaVuSans-43"/>
      <use x="1284.378906" xlink:href="#DejaVuSans-6f"/>
      <use x="1345.560547" xlink:href="#DejaVuSans-67"/>
      <use x="1409.037109" xlink:href="#DejaVuSans-6e"/>
      <use x="1472.416016" xlink:href="#DejaVuSans-69"/>
      <use x="1500.199219" xlink:href="#DejaVuSans-74"/>
      <use x="1539.408203" xlink:href="#DejaVuSans-69"/>
      <use x="1567.191406" xlink:href="#DejaVuSans-76"/>
      <use x="1626.371094" xlink:href="#DejaVuSans-65"/>
      <use x="1687.894531" xlink:href="#DejaVuSans-20"/>
      <use x="1719.681641" xlink:href="#DejaVuSans-49"/>
      <use x="1749.173828" xlink:href="#DejaVuSans-6d"/>
      <use x="1846.585938" xlink:href="#DejaVuSans-70"/>
      <use x="1910.0625" xlink:href="#DejaVuSans-61"/>
      <use x="1971.341797" xlink:href="#DejaVuSans-69"/>
      <use x="1999.125" xlink:href="#DejaVuSans-72"/>
      <use x="2038.488281" xlink:href="#DejaVuSans-6d"/>
      <use x="2135.900391" xlink:href="#DejaVuSans-65"/>
      <use x="2197.423828" xlink:href="#DejaVuSans-6e"/>
      <use x="2260.802734" xlink:href="#DejaVuSans-74"/>
     </g>
    </g>
   </g>
   <g id="line2d_20">
    <path clip-path="url(#p73a95e1cef)" d="M 110.99997 254.52 
L 799.199784 254.52 
" style="fill:none;stroke:#ff0000;stroke-dasharray:5.55,2.4;stroke-dashoffset:0;stroke-width:1.5;"/>
   </g>
   <g id="patch_3">
    <path d="M 110.99997 448.56 
L 110.99997 60.48 
" style="fill:none;stroke:#000000;stroke-linecap:square;stroke-linejoin:miter;stroke-width:0.8;"/>
   </g>
   <g id="patch_4">
    <path d="M 799.199784 448.56 
L 799.199784 60.48 
" style="fill:none;stroke:#000000;stroke-linecap:square;stroke-linejoin:miter;stroke-width:0.8;"/>
   </g>
   <g id="patch_5">
    <path d="M 110.99997 448.56 
L 799.199784 448.56 
" style="fill:none;stroke:#000000;stroke-linecap:square;stroke-linejoin:miter;stroke-width:0.8;"/>
   </g>
   <g id="patch_6">
    <path d="M 110.99997 60.48 
L 799.199784 60.48 
" style="fill:none;stroke:#000000;stroke-linecap:square;stroke-linejoin:miter;stroke-width:0.8;"/>
   </g>
   <g id="text_22">
    <!-- Distribution of Sequence's Probability  -->
    <g transform="translate(340.599252 27.60525)scale(0.12 -0.12)">
     <defs>
      <path d="M 1259 4147 
L 1259 519 
L 2022 519 
Q 2988 519 3436 956 
Q 3884 1394 3884 2338 
Q 3884 3275 3436 3711 
Q 2988 4147 2022 4147 
L 1259 4147 
z
M 628 4666 
L 1925 4666 
Q 3281 4666 3915 4102 
Q 4550 3538 4550 2338 
Q 4550 1131 3912 565 
Q 3275 0 1925 0 
L 628 0 
L 628 4666 
z
" id="DejaVuSans-44" transform="scale(0.015625)"/>
      <path d="M 2834 3397 
L 2834 2853 
Q 2591 2978 2328 3040 
Q 2066 3103 1784 3103 
Q 1356 3103 1142 2972 
Q 928 2841 928 2578 
Q 928 2378 1081 2264 
Q 1234 2150 1697 2047 
L 1894 2003 
Q 2506 1872 2764 1633 
Q 3022 1394 3022 966 
Q 3022 478 2636 193 
Q 2250 -91 1575 -91 
Q 1294 -91 989 -36 
Q 684 19 347 128 
L 347 722 
Q 666 556 975 473 
Q 1284 391 1588 391 
Q 1994 391 2212 530 
Q 2431 669 2431 922 
Q 2431 1156 2273 1281 
Q 2116 1406 1581 1522 
L 1381 1569 
Q 847 1681 609 1914 
Q 372 2147 372 2553 
Q 372 3047 722 3315 
Q 1072 3584 1716 3584 
Q 2034 3584 2315 3537 
Q 2597 3491 2834 3397 
z
" id="DejaVuSans-73" transform="scale(0.015625)"/>
      <path d="M 1147 4666 
L 1147 2931 
L 616 2931 
L 616 4666 
L 1147 4666 
z
" id="DejaVuSans-27" transform="scale(0.015625)"/>
     </defs>
     <use xlink:href="#DejaVuSans-44"/>
     <use x="77.001953" xlink:href="#DejaVuSans-69"/>
     <use x="104.785156" xlink:href="#DejaVuSans-73"/>
     <use x="156.884766" xlink:href="#DejaVuSans-74"/>
     <use x="196.09375" xlink:href="#DejaVuSans-72"/>
     <use x="237.207031" xlink:href="#DejaVuSans-69"/>
     <use x="264.990234" xlink:href="#DejaVuSans-62"/>
     <use x="328.466797" xlink:href="#DejaVuSans-75"/>
     <use x="391.845703" xlink:href="#DejaVuSans-74"/>
     <use x="431.054688" xlink:href="#DejaVuSans-69"/>
     <use x="458.837891" xlink:href="#DejaVuSans-6f"/>
     <use x="520.019531" xlink:href="#DejaVuSans-6e"/>
     <use x="583.398438" xlink:href="#DejaVuSans-20"/>
     <use x="615.185547" xlink:href="#DejaVuSans-6f"/>
     <use x="676.367188" xlink:href="#DejaVuSans-66"/>
     <use x="711.572266" xlink:href="#DejaVuSans-20"/>
     <use x="743.359375" xlink:href="#DejaVuSans-53"/>
     <use x="806.835938" xlink:href="#DejaVuSans-65"/>
     <use x="868.359375" xlink:href="#DejaVuSans-71"/>
     <use x="931.835938" xlink:href="#DejaVuSans-75"/>
     <use x="995.214844" xlink:href="#DejaVuSans-65"/>
     <use x="1056.738281" xlink:href="#DejaVuSans-6e"/>
     <use x="1120.117188" xlink:href="#DejaVuSans-63"/>
     <use x="1175.097656" xlink:href="#DejaVuSans-65"/>
     <use x="1236.621094" xlink:href="#DejaVuSans-27"/>
     <use x="1264.111328" xlink:href="#DejaVuSans-73"/>
     <use x="1316.210938" xlink:href="#DejaVuSans-20"/>
     <use x="1347.998047" xlink:href="#DejaVuSans-50"/>
     <use x="1406.550781" xlink:href="#DejaVuSans-72"/>
     <use x="1445.414062" xlink:href="#DejaVuSans-6f"/>
     <use x="1506.595703" xlink:href="#DejaVuSans-62"/>
     <use x="1570.072266" xlink:href="#DejaVuSans-61"/>
     <use x="1631.351562" xlink:href="#DejaVuSans-62"/>
     <use x="1694.828125" xlink:href="#DejaVuSans-69"/>
     <use x="1722.611328" xlink:href="#DejaVuSans-6c"/>
     <use x="1750.394531" xlink:href="#DejaVuSans-69"/>
     <use x="1778.177734" xlink:href="#DejaVuSans-74"/>
     <use x="1817.386719" xlink:href="#DejaVuSans-79"/>
     <use x="1876.566406" xlink:href="#DejaVuSans-20"/>
    </g>
    <!-- of Cognitive Impairment -->
    <g transform="translate(382.28144 41.042625)scale(0.12 -0.12)">
     <use xlink:href="#DejaVuSans-6f"/>
     <use x="61.181641" xlink:href="#DejaVuSans-66"/>
     <use x="96.386719" xlink:href="#DejaVuSans-20"/>
     <use x="128.173828" xlink:href="#DejaVuSans-43"/>
     <use x="197.998047" xlink:href="#DejaVuSans-6f"/>
     <use x="259.179688" xlink:href="#DejaVuSans-67"/>
     <use x="322.65625" xlink:href="#DejaVuSans-6e"/>
     <use x="386.035156" xlink:href="#DejaVuSans-69"/>
     <use x="413.818359" xlink:href="#DejaVuSans-74"/>
     <use x="453.027344" xlink:href="#DejaVuSans-69"/>
     <use x="480.810547" xlink:href="#DejaVuSans-76"/>
     <use x="539.990234" xlink:href="#DejaVuSans-65"/>
     <use x="601.513672" xlink:href="#DejaVuSans-20"/>
     <use x="633.300781" xlink:href="#DejaVuSans-49"/>
     <use x="662.792969" xlink:href="#DejaVuSans-6d"/>
     <use x="760.205078" xlink:href="#DejaVuSans-70"/>
     <use x="823.681641" xlink:href="#DejaVuSans-61"/>
     <use x="884.960938" xlink:href="#DejaVuSans-69"/>
     <use x="912.744141" xlink:href="#DejaVuSans-72"/>
     <use x="952.107422" xlink:href="#DejaVuSans-6d"/>
     <use x="1049.519531" xlink:href="#DejaVuSans-65"/>
     <use x="1111.042969" xlink:href="#DejaVuSans-6e"/>
     <use x="1174.421875" xlink:href="#DejaVuSans-74"/>
    </g>
    <!--  -->
    <g transform="translate(455.099877 54.48)scale(0.12 -0.12)"/>
   </g>
  </g>
 </g>
 <defs>
  <clipPath id="p73a95e1cef">
   <rect height="388.08" width="688.199814" x="110.99997" y="60.48"/>
  </clipPath>
 </defs>
</svg>
